<svg width="176" height="28" viewBox="0 0 176 28" fill="none" xmlns="http://www.w3.org/2000/svg">
<path fill-rule="evenodd" clip-rule="evenodd" d="M6.16278 3.73146C7.47735 1.73756 9.81668 0 13.5 0C17.1833 0 19.5226 1.73756 20.8372 3.73146C22.0989 5.64507 22.4904 7.86177 22.4904 9.33333H25.0013C26.2773 9.33333 27.2263 10.3354 26.9528 11.394L23.0071 26.6668C22.806 27.4453 21.9941 28 21.0557 28H5.94433C5.00593 28 4.19401 27.4453 3.99288 26.6668L0.0472248 11.394C-0.22626 10.3354 0.72271 9.33333 1.99867 9.33333H4.50955C4.50955 7.86177 4.90114 5.64507 6.16278 3.73146ZM17.3509 5.38975C18.187 6.65796 18.4947 8.25944 18.4947 9.33333H8.5053C8.5053 8.25944 8.81297 6.65796 9.6491 5.38975C10.4323 4.20184 11.5892 3.39394 13.5 3.39394C15.4107 3.39394 16.5677 4.20184 17.3509 5.38975ZM13.5 19.9862C15.6948 19.9862 17.6579 18.4753 18.9652 17.15L21.4915 19.2958C19.5334 21.1663 16.6787 23.0129 13.5 23.0129C10.3213 23.0129 7.46663 21.1663 5.50848 19.2958L8.03474 17.15C9.34207 18.4753 11.3052 19.9862 13.5 19.9862Z" fill="#FFE202"/>
<path d="M48.8242 11.456C48.0616 11.5773 47.3509 11.638 46.6922 11.638C45.8776 11.638 45.1669 11.5513 44.5602 11.378C44.5776 11.326 44.5862 11.196 44.5862 10.988C44.3436 10.9533 44.1616 10.91 44.0402 10.858C44.0576 10.806 44.0662 10.6933 44.0662 10.52C44.0662 10.156 43.9796 9.91333 43.8062 9.792C43.6329 9.67067 43.3902 9.61 43.0782 9.61C42.7316 9.61 42.4369 9.714 42.1942 9.922C41.9516 10.13 41.8302 10.4333 41.8302 10.832C41.8302 11.1093 41.8909 11.2913 42.0122 11.378C42.1336 11.4473 42.2809 11.4907 42.4542 11.508C42.6276 11.5253 42.7489 11.5427 42.8182 11.56C43.8929 11.716 44.9069 12.132 45.8602 12.808C46.8309 13.4667 47.6022 14.2727 48.1742 15.226C48.7636 16.162 49.0582 17.1153 49.0582 18.086C49.0582 19.2473 48.7982 20.27 48.2782 21.154C47.7582 22.038 47.0649 22.714 46.1982 23.182C45.3489 23.6673 44.4216 23.91 43.4162 23.91C42.2722 23.91 41.1456 23.65 40.0362 23.13C38.9269 22.6273 38.0169 21.934 37.3062 21.05C36.6129 20.1487 36.2662 19.1693 36.2662 18.112L36.2922 17.774V17.41C36.7602 17.3407 37.2629 17.306 37.8002 17.306L39.3082 17.332C39.6549 17.3493 40.1489 17.358 40.7902 17.358C40.7902 17.5487 40.8162 17.722 40.8682 17.878H41.3102C41.3102 18.3113 41.4056 18.6147 41.5962 18.788C41.7869 18.944 42.0729 19.022 42.4542 19.022C42.8356 19.022 43.1562 18.918 43.4162 18.71C43.6762 18.502 43.8062 18.2073 43.8062 17.826C43.8062 17.2887 43.6069 16.916 43.2082 16.708C42.8096 16.5 42.4022 16.3613 41.9862 16.292C41.5702 16.2053 41.3016 16.1533 41.1802 16.136L40.7902 16.058C40.2702 15.954 39.8369 15.7893 39.4902 15.564C39.1436 15.3213 38.7709 15.0007 38.3722 14.602C37.1589 13.4407 36.5522 12.0627 36.5522 10.468C36.5522 9.39333 36.8209 8.40533 37.3582 7.504C37.8956 6.60267 38.6236 5.892 39.5422 5.372C40.4782 4.83467 41.5096 4.566 42.6362 4.566C43.7976 4.566 44.8722 4.78267 45.8602 5.216C46.8656 5.64933 47.6716 6.27333 48.2782 7.088C48.8849 7.90267 49.1882 8.86467 49.1882 9.974C49.1882 10.4073 49.1362 10.9013 49.0322 11.456H48.8242ZM48.2782 10.676C48.3649 10.1907 48.4082 9.78333 48.4082 9.454C48.4082 7.91133 47.8536 6.75867 46.7442 5.996C45.6522 5.216 44.2829 4.826 42.6362 4.826C41.5442 4.826 40.5562 5.07733 39.6722 5.58C38.7882 6.08267 38.0862 6.76733 37.5662 7.634C37.0636 8.50067 36.8122 9.44533 36.8122 10.468C36.8122 11.0747 36.9422 11.7333 37.2022 12.444C37.4622 13.1373 37.8609 13.7527 38.3982 14.29C38.9356 14.8273 39.5769 15.1567 40.3222 15.278C40.4782 15.3127 40.9289 15.408 41.6742 15.564C42.4196 15.7027 43.0002 15.9627 43.4162 16.344C43.8496 16.7253 44.0662 17.2193 44.0662 17.826C44.0662 18.3113 43.9102 18.6753 43.5982 18.918C43.2862 19.1607 42.9049 19.282 42.4542 19.282C41.9516 19.282 41.5096 19.1433 41.1282 18.866C40.7642 18.5713 40.5649 18.1553 40.5302 17.618C39.9929 17.618 39.5856 17.6093 39.3082 17.592L37.9042 17.566C37.4189 17.566 36.9682 17.592 36.5522 17.644V18.086C36.5522 19.1087 36.8642 20.0013 37.4882 20.764C38.1122 21.5267 38.9096 22.116 39.8802 22.532C40.8682 22.9307 41.8822 23.13 42.9222 23.13C43.8756 23.13 44.7596 22.922 45.5742 22.506C46.3889 22.0727 47.0389 21.44 47.5242 20.608C48.0269 19.7587 48.2782 18.7533 48.2782 17.592C48.2782 16.6387 48.0269 15.746 47.5242 14.914C47.0216 14.0647 46.3456 13.3627 45.4962 12.808C44.6642 12.2533 43.7629 11.924 42.7922 11.82C41.6309 11.6987 41.0502 11.1873 41.0502 10.286C41.0502 9.818 41.1976 9.46267 41.4922 9.22C41.7869 8.96 42.1422 8.83 42.5582 8.83C43.0436 8.83 43.4682 8.96867 43.8322 9.246C44.1962 9.52333 44.3782 9.88733 44.3782 10.338C44.3782 10.494 44.3696 10.598 44.3522 10.65C44.9242 10.806 45.5222 10.884 46.1462 10.884C46.6836 10.884 47.3856 10.8147 48.2522 10.676H48.2782ZM55.9314 22.896C55.0127 23.3987 54.1027 23.65 53.2014 23.65C52.6467 23.65 52.092 23.5547 51.5374 23.364C50.9827 23.1907 50.61 22.9133 50.4194 22.532C50.0554 22.2373 49.7954 21.7347 49.6394 21.024C49.5007 20.3133 49.4314 19.2647 49.4314 17.878C49.4314 17.202 49.4487 16.188 49.4834 14.836C49.518 13.5187 49.5354 12.5567 49.5354 11.95C49.5354 11.2567 49.518 10.546 49.4834 9.818C50.09 9.73133 50.8007 9.688 51.6154 9.688H53.2274C53.2274 9.91333 53.236 10.0867 53.2534 10.208H53.7474C53.7994 10.7453 53.8254 11.794 53.8254 13.354V14.654C53.8254 15.6593 53.8427 16.4393 53.8774 16.994C53.912 17.5313 54.016 18.008 54.1894 18.424C54.432 18.4587 54.6054 18.476 54.7094 18.476C55.1947 18.476 55.5414 18.32 55.7494 18.008C55.9747 17.696 56.0874 17.1153 56.0874 16.266C56.0874 15.85 56.07 15.1913 56.0354 14.29C55.9834 13.6313 55.9574 12.9553 55.9574 12.262C55.9574 11.378 56.0007 10.6673 56.0874 10.13V9.87C56.59 9.73133 57.084 9.662 57.5694 9.662L58.7914 9.688H59.0774C59.3374 9.688 59.5887 9.67067 59.8314 9.636V10.208L60.3514 10.156L60.3774 15.07C60.412 17.254 60.4294 18.9093 60.4294 20.036C60.4294 20.9547 60.412 22.194 60.3774 23.754C59.5454 23.702 59.1554 23.676 59.2074 23.676C59.0514 23.676 58.8087 23.702 58.4794 23.754C58.15 23.806 57.7254 23.832 57.2054 23.832C56.928 23.832 56.7287 23.7973 56.6074 23.728C56.5034 23.6587 56.4514 23.52 56.4514 23.312C56.1567 23.2947 55.992 23.1907 55.9574 23L55.9314 22.896ZM56.5034 23.078C57.006 23.078 57.5607 23.0347 58.1674 22.948C58.4447 22.9133 58.618 22.896 58.6874 22.896C58.7394 22.896 59.0427 22.9133 59.5974 22.948C59.632 21.1453 59.6494 19.828 59.6494 18.996C59.6494 17.9387 59.632 16.4047 59.5974 14.394L59.5714 9.922C59.3634 9.93933 59.086 9.948 58.7394 9.948L57.4654 9.922C57.1187 9.922 56.746 9.974 56.3474 10.078V10.182C56.2607 10.7193 56.2174 11.378 56.2174 12.158C56.2174 12.5913 56.2347 13.2587 56.2694 14.16C56.3214 14.836 56.3474 15.512 56.3474 16.188C56.3474 17.1587 56.2087 17.826 55.9314 18.19C55.6714 18.554 55.264 18.736 54.7094 18.736C54.224 18.736 53.8687 18.6147 53.6434 18.372C53.418 18.112 53.2794 17.8173 53.2274 17.488C53.1754 17.1587 53.132 16.656 53.0974 15.98C53.0627 15.72 53.0454 15.304 53.0454 14.732V13.848V11.898V11.066C53.0454 10.546 53.028 10.1733 52.9934 9.948L51.4854 9.922C50.8614 9.922 50.2807 9.96533 49.7434 10.052C49.7607 10.3813 49.7694 10.9273 49.7694 11.69C49.7694 12.2793 49.752 13.2673 49.7174 14.654C49.6827 16.0407 49.6654 17.0807 49.6654 17.774C49.6654 20.2873 49.8734 21.7173 50.2894 22.064C50.8787 22.6013 51.676 22.87 52.6814 22.87C53.3227 22.87 53.8687 22.7747 54.3194 22.584C54.77 22.3933 55.3854 22.064 56.1654 21.596L56.1394 22.22C56.1394 22.792 56.2607 23.078 56.5034 23.078ZM72.2905 18.554C72.2038 19.7673 72.1085 20.712 72.0045 21.388C71.9005 22.0467 71.7358 22.506 71.5105 22.766C71.1291 23.3033 70.6178 23.6587 69.9765 23.832C69.3351 24.0227 68.5551 24.118 67.6365 24.118C66.4751 24.118 65.5218 24.04 64.7765 23.884C64.0485 23.728 63.4071 23.364 62.8525 22.792L62.6185 22.558C61.5265 21.7433 60.9805 20.0967 60.9805 17.618V16.812C60.9805 15.7893 60.9545 15.0613 60.9025 14.628C60.9025 13.952 60.9285 13.3887 60.9805 12.938C61.0498 12.4873 61.1971 11.9587 61.4225 11.352L61.3965 11.378C61.5525 10.7367 62.0291 10.2513 62.8265 9.922C63.6411 9.59267 64.5858 9.428 65.6605 9.428C65.7991 9.44533 66.1198 9.454 66.6225 9.454L67.2465 9.428C68.0265 9.428 68.7718 9.56667 69.4825 9.844C70.1931 10.104 70.7391 10.5027 71.1205 11.04L71.2245 11.118C71.6925 11.4647 71.9958 12.0453 72.1345 12.86C72.2731 13.6573 72.3425 14.7753 72.3425 16.214C71.7878 16.3007 71.3805 16.344 71.1205 16.344C70.6871 16.344 70.1845 16.3093 69.6125 16.24C69.0578 16.1707 68.7025 16.1273 68.5465 16.11C68.5291 16.0753 68.5118 16.0147 68.4945 15.928C68.4771 15.824 68.4338 15.7547 68.3645 15.72C68.2951 15.668 68.1825 15.6247 68.0265 15.59C67.9745 15.1913 67.8705 14.8967 67.7145 14.706C67.5585 14.5153 67.2898 14.42 66.9085 14.42C66.8391 14.42 66.6831 14.4373 66.4405 14.472H66.4665C66.0505 14.5933 65.7731 14.8187 65.6345 15.148C65.4958 15.4773 65.4265 15.902 65.4265 16.422V17.228C65.4265 17.4187 65.4091 17.722 65.3745 18.138L65.3485 18.866C65.3485 19.074 65.4438 19.2127 65.6345 19.282C65.8251 19.334 66.0765 19.36 66.3885 19.36C66.8738 19.36 67.2291 19.282 67.4545 19.126H67.4285C67.5325 19.074 67.6191 18.9527 67.6885 18.762C67.7751 18.554 67.8445 18.346 67.8965 18.138C67.9485 17.9127 67.9831 17.7567 68.0005 17.67C68.4165 17.7047 68.7545 17.722 69.0145 17.722L69.8205 17.696C69.9938 17.6787 70.2538 17.67 70.6005 17.67C71.0165 17.67 71.3371 17.696 71.5625 17.748L71.7705 18.034L71.7445 18.216L72.0825 18.268L72.2905 18.554ZM69.4565 17.956C69.2485 17.9733 68.9625 17.982 68.5985 17.982C68.3905 17.982 68.2605 17.9733 68.2085 17.956C68.0871 18.5453 67.9051 18.9787 67.6625 19.256C67.4371 19.516 67.0125 19.646 66.3885 19.646C65.8858 19.646 65.4611 19.5333 65.1145 19.308C64.7678 19.0827 64.5945 18.7447 64.5945 18.294V17.358C64.5945 16.4393 64.6291 15.7287 64.6985 15.226C64.7678 14.7233 64.9325 14.3333 65.1925 14.056C65.4698 13.7613 65.8945 13.614 66.4665 13.614C66.9518 13.614 67.3505 13.77 67.6625 14.082C67.9745 14.394 68.1738 14.8187 68.2605 15.356C69.1618 15.512 69.9418 15.59 70.6005 15.59C71.0165 15.59 71.3371 15.5553 71.5625 15.486C71.5625 15.3127 71.5451 14.7927 71.5105 13.926C71.4931 13.042 71.3978 12.3573 71.2245 11.872C71.0685 11.3867 70.8431 11.0313 70.5485 10.806C70.1498 10.4247 69.6471 10.1473 69.0405 9.974C68.4511 9.78333 67.8185 9.688 67.1425 9.688L66.1545 9.714C65.9291 9.714 65.7558 9.70533 65.6345 9.688C64.4731 9.688 63.5718 9.85267 62.9305 10.182C62.2891 10.494 61.8298 11.0053 61.5525 11.716C61.2925 12.4093 61.1625 13.3713 61.1625 14.602C61.2145 15.07 61.2405 15.564 61.2405 16.084L61.2145 17.566C61.2145 19.1087 61.4571 20.3827 61.9425 21.388C62.4451 22.3933 63.3811 23.0087 64.7505 23.234L65.9725 23.26C66.5618 23.2947 67.0211 23.312 67.3505 23.312C68.1651 23.312 68.8585 23.2253 69.4305 23.052C70.0025 22.8787 70.4531 22.558 70.7825 22.09C70.9905 21.882 71.1378 21.4487 71.2245 20.79C71.3285 20.1313 71.4238 19.204 71.5105 18.008C71.2678 17.956 70.9385 17.93 70.5225 17.93L69.4565 17.956ZM83.7924 18.554C83.7057 19.7673 83.6104 20.712 83.5064 21.388C83.4024 22.0467 83.2377 22.506 83.0124 22.766C82.6311 23.3033 82.1197 23.6587 81.4784 23.832C80.8371 24.0227 80.0571 24.118 79.1384 24.118C77.9771 24.118 77.0237 24.04 76.2784 23.884C75.5504 23.728 74.9091 23.364 74.3544 22.792L74.1204 22.558C73.0284 21.7433 72.4824 20.0967 72.4824 17.618V16.812C72.4824 15.7893 72.4564 15.0613 72.4044 14.628C72.4044 13.952 72.4304 13.3887 72.4824 12.938C72.5517 12.4873 72.6991 11.9587 72.9244 11.352L72.8984 11.378C73.0544 10.7367 73.5311 10.2513 74.3284 9.922C75.1431 9.59267 76.0877 9.428 77.1624 9.428C77.3011 9.44533 77.6217 9.454 78.1244 9.454L78.7484 9.428C79.5284 9.428 80.2737 9.56667 80.9844 9.844C81.6951 10.104 82.2411 10.5027 82.6224 11.04L82.7264 11.118C83.1944 11.4647 83.4977 12.0453 83.6364 12.86C83.7751 13.6573 83.8444 14.7753 83.8444 16.214C83.2897 16.3007 82.8824 16.344 82.6224 16.344C82.1891 16.344 81.6864 16.3093 81.1144 16.24C80.5597 16.1707 80.2044 16.1273 80.0484 16.11C80.0311 16.0753 80.0137 16.0147 79.9964 15.928C79.9791 15.824 79.9357 15.7547 79.8664 15.72C79.7971 15.668 79.6844 15.6247 79.5284 15.59C79.4764 15.1913 79.3724 14.8967 79.2164 14.706C79.0604 14.5153 78.7917 14.42 78.4104 14.42C78.3411 14.42 78.1851 14.4373 77.9424 14.472H77.9684C77.5524 14.5933 77.2751 14.8187 77.1364 15.148C76.9977 15.4773 76.9284 15.902 76.9284 16.422V17.228C76.9284 17.4187 76.9111 17.722 76.8764 18.138L76.8504 18.866C76.8504 19.074 76.9457 19.2127 77.1364 19.282C77.3271 19.334 77.5784 19.36 77.8904 19.36C78.3757 19.36 78.7311 19.282 78.9564 19.126H78.9304C79.0344 19.074 79.1211 18.9527 79.1904 18.762C79.2771 18.554 79.3464 18.346 79.3984 18.138C79.4504 17.9127 79.4851 17.7567 79.5024 17.67C79.9184 17.7047 80.2564 17.722 80.5164 17.722L81.3224 17.696C81.4957 17.6787 81.7557 17.67 82.1024 17.67C82.5184 17.67 82.8391 17.696 83.0644 17.748L83.2724 18.034L83.2464 18.216L83.5844 18.268L83.7924 18.554ZM80.9584 17.956C80.7504 17.9733 80.4644 17.982 80.1004 17.982C79.8924 17.982 79.7624 17.9733 79.7104 17.956C79.5891 18.5453 79.4071 18.9787 79.1644 19.256C78.9391 19.516 78.5144 19.646 77.8904 19.646C77.3877 19.646 76.9631 19.5333 76.6164 19.308C76.2697 19.0827 76.0964 18.7447 76.0964 18.294V17.358C76.0964 16.4393 76.1311 15.7287 76.2004 15.226C76.2697 14.7233 76.4344 14.3333 76.6944 14.056C76.9717 13.7613 77.3964 13.614 77.9684 13.614C78.4537 13.614 78.8524 13.77 79.1644 14.082C79.4764 14.394 79.6757 14.8187 79.7624 15.356C80.6637 15.512 81.4437 15.59 82.1024 15.59C82.5184 15.59 82.8391 15.5553 83.0644 15.486C83.0644 15.3127 83.0471 14.7927 83.0124 13.926C82.9951 13.042 82.8997 12.3573 82.7264 11.872C82.5704 11.3867 82.3451 11.0313 82.0504 10.806C81.6517 10.4247 81.1491 10.1473 80.5424 9.974C79.9531 9.78333 79.3204 9.688 78.6444 9.688L77.6564 9.714C77.4311 9.714 77.2577 9.70533 77.1364 9.688C75.9751 9.688 75.0737 9.85267 74.4324 10.182C73.7911 10.494 73.3317 11.0053 73.0544 11.716C72.7944 12.4093 72.6644 13.3713 72.6644 14.602C72.7164 15.07 72.7424 15.564 72.7424 16.084L72.7164 17.566C72.7164 19.1087 72.9591 20.3827 73.4444 21.388C73.9471 22.3933 74.8831 23.0087 76.2524 23.234L77.4744 23.26C78.0637 23.2947 78.5231 23.312 78.8524 23.312C79.6671 23.312 80.3604 23.2253 80.9324 23.052C81.5044 22.8787 81.9551 22.558 82.2844 22.09C82.4924 21.882 82.6397 21.4487 82.7264 20.79C82.8304 20.1313 82.9257 19.204 83.0124 18.008C82.7697 17.956 82.4404 17.93 82.0244 17.93L80.9584 17.956ZM90.6404 22.896C89.7217 23.3987 88.8117 23.65 87.9104 23.65C87.3557 23.65 86.801 23.5547 86.2464 23.364C85.6917 23.1907 85.319 22.9133 85.1284 22.532C84.7644 22.2373 84.5044 21.7347 84.3484 21.024C84.2097 20.3133 84.1404 19.2647 84.1404 17.878C84.1404 17.202 84.1577 16.188 84.1924 14.836C84.227 13.5187 84.2444 12.5567 84.2444 11.95C84.2444 11.2567 84.227 10.546 84.1924 9.818C84.799 9.73133 85.5097 9.688 86.3244 9.688H87.9364C87.9364 9.91333 87.945 10.0867 87.9624 10.208H88.4564C88.5084 10.7453 88.5344 11.794 88.5344 13.354V14.654C88.5344 15.6593 88.5517 16.4393 88.5864 16.994C88.621 17.5313 88.725 18.008 88.8984 18.424C89.141 18.4587 89.3144 18.476 89.4184 18.476C89.9037 18.476 90.2504 18.32 90.4584 18.008C90.6837 17.696 90.7964 17.1153 90.7964 16.266C90.7964 15.85 90.779 15.1913 90.7444 14.29C90.6924 13.6313 90.6664 12.9553 90.6664 12.262C90.6664 11.378 90.7097 10.6673 90.7964 10.13V9.87C91.299 9.73133 91.793 9.662 92.2784 9.662L93.5004 9.688H93.7864C94.0464 9.688 94.2977 9.67067 94.5404 9.636V10.208L95.0604 10.156L95.0864 15.07C95.121 17.254 95.1384 18.9093 95.1384 20.036C95.1384 20.9547 95.121 22.194 95.0864 23.754C94.2544 23.702 93.8644 23.676 93.9164 23.676C93.7604 23.676 93.5177 23.702 93.1884 23.754C92.859 23.806 92.4344 23.832 91.9144 23.832C91.637 23.832 91.4377 23.7973 91.3164 23.728C91.2124 23.6587 91.1604 23.52 91.1604 23.312C90.8657 23.2947 90.701 23.1907 90.6664 23L90.6404 22.896ZM91.2124 23.078C91.715 23.078 92.2697 23.0347 92.8764 22.948C93.1537 22.9133 93.327 22.896 93.3964 22.896C93.4484 22.896 93.7517 22.9133 94.3064 22.948C94.341 21.1453 94.3584 19.828 94.3584 18.996C94.3584 17.9387 94.341 16.4047 94.3064 14.394L94.2804 9.922C94.0724 9.93933 93.795 9.948 93.4484 9.948L92.1744 9.922C91.8277 9.922 91.455 9.974 91.0564 10.078V10.182C90.9697 10.7193 90.9264 11.378 90.9264 12.158C90.9264 12.5913 90.9437 13.2587 90.9784 14.16C91.0304 14.836 91.0564 15.512 91.0564 16.188C91.0564 17.1587 90.9177 17.826 90.6404 18.19C90.3804 18.554 89.973 18.736 89.4184 18.736C88.933 18.736 88.5777 18.6147 88.3524 18.372C88.127 18.112 87.9884 17.8173 87.9364 17.488C87.8844 17.1587 87.841 16.656 87.8064 15.98C87.7717 15.72 87.7544 15.304 87.7544 14.732V13.848V11.898V11.066C87.7544 10.546 87.737 10.1733 87.7024 9.948L86.1944 9.922C85.5704 9.922 84.9897 9.96533 84.4524 10.052C84.4697 10.3813 84.4784 10.9273 84.4784 11.69C84.4784 12.2793 84.461 13.2673 84.4264 14.654C84.3917 16.0407 84.3744 17.0807 84.3744 17.774C84.3744 20.2873 84.5824 21.7173 84.9984 22.064C85.5877 22.6013 86.385 22.87 87.3904 22.87C88.0317 22.87 88.5777 22.7747 89.0284 22.584C89.479 22.3933 90.0944 22.064 90.8744 21.596L90.8484 22.22C90.8484 22.792 90.9697 23.078 91.2124 23.078ZM100.369 10.65C101.219 10.13 102.137 9.87 103.125 9.87C103.68 9.87 104.2 9.96533 104.685 10.156C105.171 10.3293 105.569 10.6153 105.881 11.014L106.479 10.702C106.999 10.4247 107.459 10.2167 107.857 10.078C108.256 9.93933 108.715 9.87 109.235 9.87C109.79 9.87 110.327 9.96533 110.847 10.156C111.367 10.3467 111.757 10.6413 112.017 11.04L112.329 11.274C112.78 11.6207 113.005 13.0767 113.005 15.642C113.005 16.318 112.988 17.332 112.953 18.684C112.919 20.0013 112.901 20.9633 112.901 21.57C112.901 22.2633 112.919 22.974 112.953 23.702C112.329 23.7887 111.601 23.832 110.769 23.832H109.209C109.192 23.7107 109.183 23.5373 109.183 23.312H108.689C108.637 22.7747 108.611 21.726 108.611 20.166V18.866C108.611 17.93 108.594 17.176 108.559 16.604C108.525 16.0147 108.429 15.5207 108.273 15.122C108.152 15.07 107.979 15.044 107.753 15.044C107.389 15.044 107.103 15.122 106.895 15.278V15.902C106.895 16.5607 106.878 17.5487 106.843 18.866C106.809 20.1833 106.791 21.1453 106.791 21.752C106.791 22.064 106.817 22.714 106.869 23.702C106.245 23.7887 105.517 23.832 104.685 23.832H103.099C103.082 23.7107 103.073 23.5373 103.073 23.312H102.579C102.527 22.7747 102.501 21.726 102.501 20.166V18.866C102.501 17.8607 102.484 17.0807 102.449 16.526C102.415 15.9713 102.319 15.5033 102.163 15.122C102.042 15.07 101.86 15.044 101.617 15.044C101.097 15.044 100.733 15.2173 100.525 15.564C100.335 15.9107 100.239 16.578 100.239 17.566C100.239 18.034 100.257 18.684 100.291 19.516C100.326 20.3827 100.343 21.0153 100.343 21.414C100.343 22.1593 100.309 22.8093 100.239 23.364V23.65C99.6328 23.806 99.1301 23.884 98.7314 23.884C98.4888 23.884 98.2981 23.8753 98.1594 23.858L97.5354 23.832H97.2494C96.9894 23.832 96.7381 23.8493 96.4954 23.884V23.312L95.9754 23.364L95.9494 18.45C95.9148 16.266 95.8974 14.6107 95.8974 13.484C95.8974 12.5653 95.9148 11.326 95.9494 9.766C96.3654 9.818 96.7554 9.844 97.1194 9.844C97.2581 9.844 97.4834 9.818 97.7954 9.766C98.1248 9.714 98.5668 9.688 99.1214 9.688C99.5894 9.688 99.8321 9.792 99.8494 10C99.8494 10.104 99.9274 10.1993 100.083 10.286C100.257 10.3553 100.352 10.4333 100.369 10.52V10.65ZM99.2774 9.922C98.7921 9.922 98.2461 9.96533 97.6394 10.052C97.3621 10.0867 97.1888 10.104 97.1194 10.104H96.8074C96.5821 10.104 96.3828 10.0867 96.2094 10.052C96.1748 10.5893 96.1574 11.378 96.1574 12.418V14.004C96.1574 15.0613 96.1748 16.5953 96.2094 18.606L96.2354 23.078C96.4434 23.0607 96.7208 23.052 97.0674 23.052L98.3154 23.078C98.6794 23.078 99.0608 23.026 99.4594 22.922V22.818C99.5288 22.246 99.5634 21.6047 99.5634 20.894C99.5634 20.4433 99.5461 19.7847 99.5114 18.918C99.4768 18.0513 99.4594 17.3927 99.4594 16.942C99.4594 15.902 99.5894 15.2 99.8494 14.836C100.109 14.4547 100.525 14.264 101.097 14.264C101.721 14.264 102.12 14.4547 102.293 14.836C102.484 15.2 102.597 15.616 102.631 16.084C102.666 16.5347 102.692 16.8467 102.709 17.02C102.744 17.28 102.761 17.696 102.761 18.268V19.178V21.102V21.934C102.761 22.454 102.779 22.8267 102.813 23.052L104.321 23.078C104.945 23.078 105.526 23.0347 106.063 22.948C106.029 22.3587 106.011 21.8733 106.011 21.492C106.011 20.92 106.029 20.01 106.063 18.762C106.098 17.41 106.115 16.4133 106.115 15.772V14.628C106.445 14.3853 106.817 14.264 107.233 14.264C107.857 14.264 108.256 14.446 108.429 14.81C108.603 15.174 108.707 15.59 108.741 16.058C108.776 16.526 108.802 16.8467 108.819 17.02C108.854 17.28 108.871 17.696 108.871 18.268V19.178V21.102V21.934C108.871 22.454 108.889 22.8267 108.923 23.052L110.431 23.078C111.055 23.078 111.636 23.0347 112.173 22.948C112.139 22.2893 112.121 21.7433 112.121 21.31C112.121 20.7033 112.139 19.724 112.173 18.372C112.208 16.9507 112.225 15.9107 112.225 15.252C112.225 14.056 112.182 13.094 112.095 12.366C112.009 11.6207 111.853 11.144 111.627 10.936C111.038 10.3987 110.232 10.13 109.209 10.13C108.603 10.13 108.074 10.2253 107.623 10.416C107.173 10.6067 106.557 10.9273 105.777 11.378C105.604 10.962 105.249 10.65 104.711 10.442C104.191 10.234 103.654 10.13 103.099 10.13C102.545 10.13 102.051 10.2167 101.617 10.39C101.184 10.5633 100.777 10.7627 100.395 10.988C100.014 11.196 99.7628 11.3347 99.6414 11.404L99.6674 10.806C99.6674 10.2167 99.5374 9.922 99.2774 9.922ZM118.143 10.65C118.992 10.13 119.911 9.87 120.899 9.87C121.454 9.87 121.974 9.96533 122.459 10.156C122.944 10.3293 123.343 10.6153 123.655 11.014L124.253 10.702C124.773 10.4247 125.232 10.2167 125.631 10.078C126.03 9.93933 126.489 9.87 127.009 9.87C127.564 9.87 128.101 9.96533 128.621 10.156C129.141 10.3467 129.531 10.6413 129.791 11.04L130.103 11.274C130.554 11.6207 130.779 13.0767 130.779 15.642C130.779 16.318 130.762 17.332 130.727 18.684C130.692 20.0013 130.675 20.9633 130.675 21.57C130.675 22.2633 130.692 22.974 130.727 23.702C130.103 23.7887 129.375 23.832 128.543 23.832H126.983C126.966 23.7107 126.957 23.5373 126.957 23.312H126.463C126.411 22.7747 126.385 21.726 126.385 20.166V18.866C126.385 17.93 126.368 17.176 126.333 16.604C126.298 16.0147 126.203 15.5207 126.047 15.122C125.926 15.07 125.752 15.044 125.527 15.044C125.163 15.044 124.877 15.122 124.669 15.278V15.902C124.669 16.5607 124.652 17.5487 124.617 18.866C124.582 20.1833 124.565 21.1453 124.565 21.752C124.565 22.064 124.591 22.714 124.643 23.702C124.019 23.7887 123.291 23.832 122.459 23.832H120.873C120.856 23.7107 120.847 23.5373 120.847 23.312H120.353C120.301 22.7747 120.275 21.726 120.275 20.166V18.866C120.275 17.8607 120.258 17.0807 120.223 16.526C120.188 15.9713 120.093 15.5033 119.937 15.122C119.816 15.07 119.634 15.044 119.391 15.044C118.871 15.044 118.507 15.2173 118.299 15.564C118.108 15.9107 118.013 16.578 118.013 17.566C118.013 18.034 118.03 18.684 118.065 19.516C118.1 20.3827 118.117 21.0153 118.117 21.414C118.117 22.1593 118.082 22.8093 118.013 23.364V23.65C117.406 23.806 116.904 23.884 116.505 23.884C116.262 23.884 116.072 23.8753 115.933 23.858L115.309 23.832H115.023C114.763 23.832 114.512 23.8493 114.269 23.884V23.312L113.749 23.364L113.723 18.45C113.688 16.266 113.671 14.6107 113.671 13.484C113.671 12.5653 113.688 11.326 113.723 9.766C114.139 9.818 114.529 9.844 114.893 9.844C115.032 9.844 115.257 9.818 115.569 9.766C115.898 9.714 116.34 9.688 116.895 9.688C117.363 9.688 117.606 9.792 117.623 10C117.623 10.104 117.701 10.1993 117.857 10.286C118.03 10.3553 118.126 10.4333 118.143 10.52V10.65ZM117.051 9.922C116.566 9.922 116.02 9.96533 115.413 10.052C115.136 10.0867 114.962 10.104 114.893 10.104H114.581C114.356 10.104 114.156 10.0867 113.983 10.052C113.948 10.5893 113.931 11.378 113.931 12.418V14.004C113.931 15.0613 113.948 16.5953 113.983 18.606L114.009 23.078C114.217 23.0607 114.494 23.052 114.841 23.052L116.089 23.078C116.453 23.078 116.834 23.026 117.233 22.922V22.818C117.302 22.246 117.337 21.6047 117.337 20.894C117.337 20.4433 117.32 19.7847 117.285 18.918C117.25 18.0513 117.233 17.3927 117.233 16.942C117.233 15.902 117.363 15.2 117.623 14.836C117.883 14.4547 118.299 14.264 118.871 14.264C119.495 14.264 119.894 14.4547 120.067 14.836C120.258 15.2 120.37 15.616 120.405 16.084C120.44 16.5347 120.466 16.8467 120.483 17.02C120.518 17.28 120.535 17.696 120.535 18.268V19.178V21.102V21.934C120.535 22.454 120.552 22.8267 120.587 23.052L122.095 23.078C122.719 23.078 123.3 23.0347 123.837 22.948C123.802 22.3587 123.785 21.8733 123.785 21.492C123.785 20.92 123.802 20.01 123.837 18.762C123.872 17.41 123.889 16.4133 123.889 15.772V14.628C124.218 14.3853 124.591 14.264 125.007 14.264C125.631 14.264 126.03 14.446 126.203 14.81C126.376 15.174 126.48 15.59 126.515 16.058C126.55 16.526 126.576 16.8467 126.593 17.02C126.628 17.28 126.645 17.696 126.645 18.268V19.178V21.102V21.934C126.645 22.454 126.662 22.8267 126.697 23.052L128.205 23.078C128.829 23.078 129.41 23.0347 129.947 22.948C129.912 22.2893 129.895 21.7433 129.895 21.31C129.895 20.7033 129.912 19.724 129.947 18.372C129.982 16.9507 129.999 15.9107 129.999 15.252C129.999 14.056 129.956 13.094 129.869 12.366C129.782 11.6207 129.626 11.144 129.401 10.936C128.812 10.3987 128.006 10.13 126.983 10.13C126.376 10.13 125.848 10.2253 125.397 10.416C124.946 10.6067 124.331 10.9273 123.551 11.378C123.378 10.962 123.022 10.65 122.485 10.442C121.965 10.234 121.428 10.13 120.873 10.13C120.318 10.13 119.824 10.2167 119.391 10.39C118.958 10.5633 118.55 10.7627 118.169 10.988C117.788 11.196 117.536 11.3347 117.415 11.404L117.441 10.806C117.441 10.2167 117.311 9.922 117.051 9.922ZM135.656 17.748C135.656 18.1987 135.682 18.5713 135.734 18.866C135.804 19.1433 135.934 19.4467 136.124 19.776V19.828C136.35 19.9493 136.627 20.01 136.956 20.01C137.32 20.01 137.624 19.8453 137.866 19.516C138.109 19.1693 138.23 18.658 138.23 17.982V17.722C138.612 17.7567 138.898 17.774 139.088 17.774L139.998 17.748C140.189 17.7307 140.484 17.722 140.882 17.722C141.177 17.722 141.567 17.7653 142.052 17.852L142.026 18.294L142.572 18.372C142.572 20.244 142.364 21.5873 141.948 22.402C141.55 23.2167 141.03 23.702 140.388 23.858C139.764 24.0313 138.802 24.118 137.502 24.118C136.462 24.118 135.63 24.04 135.006 23.884C134.4 23.7453 133.88 23.416 133.446 22.896C132.649 22.2373 132.06 21.2927 131.678 20.062C131.297 18.8313 131.106 17.4967 131.106 16.058C131.106 14.3767 131.306 12.9987 131.704 11.924C132.068 11.092 132.701 10.4593 133.602 10.026C134.504 9.57533 135.509 9.35 136.618 9.35C137.953 9.35 139.071 9.636 139.972 10.208C140.891 10.78 141.567 11.5513 142 12.522C142.451 13.4753 142.676 14.524 142.676 15.668C142.676 15.772 142.65 16.214 142.598 16.994C142.269 17.0807 141.394 17.1587 139.972 17.228C138.568 17.2973 137.32 17.332 136.228 17.332C135.968 17.332 135.778 17.3233 135.656 17.306V17.748ZM134.876 16.474C135.084 16.526 135.682 16.552 136.67 16.552C137.624 16.552 138.655 16.526 139.764 16.474C140.874 16.4047 141.567 16.3353 141.844 16.266C141.879 15.746 141.896 15.3733 141.896 15.148C141.896 13.4147 141.506 12.0627 140.726 11.092C139.964 10.104 138.594 9.61 136.618 9.61C135.578 9.61 134.616 9.82667 133.732 10.26C132.866 10.676 132.268 11.2567 131.938 12.002C131.54 13.0767 131.34 14.5153 131.34 16.318C131.34 18.1207 131.644 19.6807 132.25 20.998C132.857 22.3153 133.802 23.0693 135.084 23.26L136.228 23.286C136.818 23.3207 137.277 23.338 137.606 23.338C138.421 23.338 139.114 23.2513 139.686 23.078C140.276 22.9047 140.735 22.584 141.064 22.116C141.29 21.9253 141.446 21.5267 141.532 20.92C141.619 20.296 141.706 19.3427 141.792 18.06C141.532 18.008 141.194 17.982 140.778 17.982L139.764 18.008C139.556 18.0253 139.27 18.034 138.906 18.034C138.698 18.034 138.568 18.0253 138.516 18.008V18.216C138.516 18.892 138.36 19.4033 138.048 19.75C137.754 20.0967 137.39 20.27 136.956 20.27C135.622 20.27 134.928 19.1607 134.876 16.942V16.474ZM139.036 14.42C139.036 14.472 138.976 14.498 138.854 14.498C138.768 14.498 138.594 14.4893 138.334 14.472C138.074 14.4547 137.762 14.446 137.398 14.446L135.708 14.472C135.379 14.472 135.162 14.4547 135.058 14.42C134.954 14.3853 134.902 14.3073 134.902 14.186C134.902 12.8513 135.639 12.184 137.112 12.184C137.442 12.184 137.745 12.2707 138.022 12.444C138.334 12.6 138.577 12.834 138.75 13.146C138.941 13.458 139.036 13.7873 139.036 14.134V14.42ZM138.412 13.172C138.187 13.0333 137.927 12.964 137.632 12.964C137.026 12.964 136.584 13.068 136.306 13.276C136.046 13.484 135.864 13.796 135.76 14.212L136.254 14.186H137.398L138.516 14.212L138.776 14.238V14.134C138.776 13.7353 138.664 13.4233 138.438 13.198L138.412 13.172ZM147.105 10.26C147.33 10.2947 147.469 10.3293 147.521 10.364C148.509 10.052 149.454 9.896 150.355 9.896C150.788 9.896 151.161 9.922 151.473 9.974C151.785 10.0087 151.941 10.0433 151.941 10.078V10.468C152.288 10.52 152.461 10.5633 152.461 10.598L152.435 12.808C152.418 13.1027 152.409 13.484 152.409 13.952C152.409 14.2293 152.435 14.758 152.487 15.538L151.889 15.33L151.915 15.356L151.603 15.252L151.629 15.278C150.936 15.1047 150.468 15.0007 150.225 14.966C150 14.9313 149.8 14.914 149.627 14.914C149.454 14.914 149.332 14.914 149.263 14.914C148.674 14.914 148.232 15.0353 147.937 15.278C147.66 15.5033 147.521 15.9193 147.521 16.526C147.59 18.658 147.625 20.9287 147.625 23.338V23.65C147.07 23.806 146.559 23.884 146.091 23.884C145.814 23.884 145.606 23.8753 145.467 23.858L144.687 23.832H144.375C144.115 23.832 143.864 23.8493 143.621 23.884V23.312L143.101 23.364L143.075 18.45C143.04 16.266 143.023 14.6107 143.023 13.484C143.023 12.5653 143.04 11.326 143.075 9.766C143.491 9.818 143.881 9.844 144.245 9.844C144.384 9.844 144.609 9.82667 144.921 9.792C145.25 9.74 145.692 9.714 146.247 9.714C146.819 9.714 147.105 9.818 147.105 10.026V10.26ZM146.845 10.026C146.845 9.99133 146.741 9.974 146.533 9.974C145.961 9.974 145.476 10 145.077 10.052C144.678 10.0867 144.401 10.104 144.245 10.104H143.933C143.708 10.104 143.508 10.0867 143.335 10.052C143.3 10.5893 143.283 11.378 143.283 12.418V14.004C143.283 15.0613 143.3 16.5953 143.335 18.606L143.361 23.078C143.569 23.0607 143.855 23.052 144.219 23.052L145.623 23.078C146.039 23.078 146.446 23.026 146.845 22.922V22.818C146.845 21.8993 146.828 20.712 146.793 19.256C146.758 17.8 146.741 16.6647 146.741 15.85C146.741 15.2087 146.906 14.7667 147.235 14.524C147.582 14.264 148.084 14.134 148.743 14.134C148.847 14.134 148.994 14.134 149.185 14.134C149.393 14.1167 149.627 14.134 149.887 14.186C150.164 14.2207 150.502 14.29 150.901 14.394C150.988 14.4287 151.074 14.4633 151.161 14.498C151.265 14.5153 151.36 14.5413 151.447 14.576L151.681 14.654C151.664 14.4633 151.655 14.186 151.655 13.822V12.86L151.681 10.078C151.681 10.0433 151.499 10.026 151.135 10.026C150.476 10.026 149.696 10.1213 148.795 10.312C147.911 10.4853 147.27 10.6847 146.871 10.91C146.871 10.7887 146.862 10.702 146.845 10.65C146.845 10.598 146.845 10.5547 146.845 10.52V10.026ZM163.671 18.554C163.585 19.7673 163.489 20.712 163.385 21.388C163.281 22.0467 163.117 22.506 162.891 22.766C162.51 23.3033 161.999 23.6587 161.357 23.832C160.716 24.0227 159.936 24.118 159.017 24.118C157.856 24.118 156.903 24.04 156.157 23.884C155.429 23.728 154.788 23.364 154.233 22.792L153.999 22.558C152.907 21.7433 152.361 20.0967 152.361 17.618V16.812C152.361 15.7893 152.335 15.0613 152.283 14.628C152.283 13.952 152.309 13.3887 152.361 12.938C152.431 12.4873 152.578 11.9587 152.803 11.352L152.777 11.378C152.933 10.7367 153.41 10.2513 154.207 9.922C155.022 9.59267 155.967 9.428 157.041 9.428C157.18 9.44533 157.501 9.454 158.003 9.454L158.627 9.428C159.407 9.428 160.153 9.56667 160.863 9.844C161.574 10.104 162.12 10.5027 162.501 11.04L162.605 11.118C163.073 11.4647 163.377 12.0453 163.515 12.86C163.654 13.6573 163.723 14.7753 163.723 16.214C163.169 16.3007 162.761 16.344 162.501 16.344C162.068 16.344 161.565 16.3093 160.993 16.24C160.439 16.1707 160.083 16.1273 159.927 16.11C159.91 16.0753 159.893 16.0147 159.875 15.928C159.858 15.824 159.815 15.7547 159.745 15.72C159.676 15.668 159.563 15.6247 159.407 15.59C159.355 15.1913 159.251 14.8967 159.095 14.706C158.939 14.5153 158.671 14.42 158.289 14.42C158.22 14.42 158.064 14.4373 157.821 14.472H157.847C157.431 14.5933 157.154 14.8187 157.015 15.148C156.877 15.4773 156.807 15.902 156.807 16.422V17.228C156.807 17.4187 156.79 17.722 156.755 18.138L156.729 18.866C156.729 19.074 156.825 19.2127 157.015 19.282C157.206 19.334 157.457 19.36 157.769 19.36C158.255 19.36 158.61 19.282 158.835 19.126H158.809C158.913 19.074 159 18.9527 159.069 18.762C159.156 18.554 159.225 18.346 159.277 18.138C159.329 17.9127 159.364 17.7567 159.381 17.67C159.797 17.7047 160.135 17.722 160.395 17.722L161.201 17.696C161.375 17.6787 161.635 17.67 161.981 17.67C162.397 17.67 162.718 17.696 162.943 17.748L163.151 18.034L163.125 18.216L163.463 18.268L163.671 18.554ZM160.837 17.956C160.629 17.9733 160.343 17.982 159.979 17.982C159.771 17.982 159.641 17.9733 159.589 17.956C159.468 18.5453 159.286 18.9787 159.043 19.256C158.818 19.516 158.393 19.646 157.769 19.646C157.267 19.646 156.842 19.5333 156.495 19.308C156.149 19.0827 155.975 18.7447 155.975 18.294V17.358C155.975 16.4393 156.01 15.7287 156.079 15.226C156.149 14.7233 156.313 14.3333 156.573 14.056C156.851 13.7613 157.275 13.614 157.847 13.614C158.333 13.614 158.731 13.77 159.043 14.082C159.355 14.394 159.555 14.8187 159.641 15.356C160.543 15.512 161.323 15.59 161.981 15.59C162.397 15.59 162.718 15.5553 162.943 15.486C162.943 15.3127 162.926 14.7927 162.891 13.926C162.874 13.042 162.779 12.3573 162.605 11.872C162.449 11.3867 162.224 11.0313 161.929 10.806C161.531 10.4247 161.028 10.1473 160.421 9.974C159.832 9.78333 159.199 9.688 158.523 9.688L157.535 9.714C157.31 9.714 157.137 9.70533 157.015 9.688C155.854 9.688 154.953 9.85267 154.311 10.182C153.67 10.494 153.211 11.0053 152.933 11.716C152.673 12.4093 152.543 13.3713 152.543 14.602C152.595 15.07 152.621 15.564 152.621 16.084L152.595 17.566C152.595 19.1087 152.838 20.3827 153.323 21.388C153.826 22.3933 154.762 23.0087 156.131 23.234L157.353 23.26C157.943 23.2947 158.402 23.312 158.731 23.312C159.546 23.312 160.239 23.2253 160.811 23.052C161.383 22.8787 161.834 22.558 162.163 22.09C162.371 21.882 162.519 21.4487 162.605 20.79C162.709 20.1313 162.805 19.204 162.891 18.008C162.649 17.956 162.319 17.93 161.903 17.93L160.837 17.956ZM168.283 17.748C168.283 18.1987 168.309 18.5713 168.361 18.866C168.431 19.1433 168.561 19.4467 168.751 19.776V19.828C168.977 19.9493 169.254 20.01 169.583 20.01C169.947 20.01 170.251 19.8453 170.493 19.516C170.736 19.1693 170.857 18.658 170.857 17.982V17.722C171.239 17.7567 171.525 17.774 171.715 17.774L172.625 17.748C172.816 17.7307 173.111 17.722 173.509 17.722C173.804 17.722 174.194 17.7653 174.679 17.852L174.653 18.294L175.199 18.372C175.199 20.244 174.991 21.5873 174.575 22.402C174.177 23.2167 173.657 23.702 173.015 23.858C172.391 24.0313 171.429 24.118 170.129 24.118C169.089 24.118 168.257 24.04 167.633 23.884C167.027 23.7453 166.507 23.416 166.073 22.896C165.276 22.2373 164.687 21.2927 164.305 20.062C163.924 18.8313 163.733 17.4967 163.733 16.058C163.733 14.3767 163.933 12.9987 164.331 11.924C164.695 11.092 165.328 10.4593 166.229 10.026C167.131 9.57533 168.136 9.35 169.245 9.35C170.58 9.35 171.698 9.636 172.599 10.208C173.518 10.78 174.194 11.5513 174.627 12.522C175.078 13.4753 175.303 14.524 175.303 15.668C175.303 15.772 175.277 16.214 175.225 16.994C174.896 17.0807 174.021 17.1587 172.599 17.228C171.195 17.2973 169.947 17.332 168.855 17.332C168.595 17.332 168.405 17.3233 168.283 17.306V17.748ZM167.503 16.474C167.711 16.526 168.309 16.552 169.297 16.552C170.251 16.552 171.282 16.526 172.391 16.474C173.501 16.4047 174.194 16.3353 174.471 16.266C174.506 15.746 174.523 15.3733 174.523 15.148C174.523 13.4147 174.133 12.0627 173.353 11.092C172.591 10.104 171.221 9.61 169.245 9.61C168.205 9.61 167.243 9.82667 166.359 10.26C165.493 10.676 164.895 11.2567 164.565 12.002C164.167 13.0767 163.967 14.5153 163.967 16.318C163.967 18.1207 164.271 19.6807 164.877 20.998C165.484 22.3153 166.429 23.0693 167.711 23.26L168.855 23.286C169.445 23.3207 169.904 23.338 170.233 23.338C171.048 23.338 171.741 23.2513 172.313 23.078C172.903 22.9047 173.362 22.584 173.691 22.116C173.917 21.9253 174.073 21.5267 174.159 20.92C174.246 20.296 174.333 19.3427 174.419 18.06C174.159 18.008 173.821 17.982 173.405 17.982L172.391 18.008C172.183 18.0253 171.897 18.034 171.533 18.034C171.325 18.034 171.195 18.0253 171.143 18.008V18.216C171.143 18.892 170.987 19.4033 170.675 19.75C170.381 20.0967 170.017 20.27 169.583 20.27C168.249 20.27 167.555 19.1607 167.503 16.942V16.474ZM171.663 14.42C171.663 14.472 171.603 14.498 171.481 14.498C171.395 14.498 171.221 14.4893 170.961 14.472C170.701 14.4547 170.389 14.446 170.025 14.446L168.335 14.472C168.006 14.472 167.789 14.4547 167.685 14.42C167.581 14.3853 167.529 14.3073 167.529 14.186C167.529 12.8513 168.266 12.184 169.739 12.184C170.069 12.184 170.372 12.2707 170.649 12.444C170.961 12.6 171.204 12.834 171.377 13.146C171.568 13.458 171.663 13.7873 171.663 14.134V14.42ZM171.039 13.172C170.814 13.0333 170.554 12.964 170.259 12.964C169.653 12.964 169.211 13.068 168.933 13.276C168.673 13.484 168.491 13.796 168.387 14.212L168.881 14.186H170.025L171.143 14.212L171.403 14.238V14.134C171.403 13.7353 171.291 13.4233 171.065 13.198L171.039 13.172Z" fill="#110C0C"/>
</svg>
